<?xml version="1.0" encoding="UTF-8"?>
<svg width="198px" height="48px" viewBox="0 0 198 48" version="1.1" xmlns="http://www.w3.org/2000/svg" xmlns:xlink="http://www.w3.org/1999/xlink">
    <!-- Generator: Sketch 46.2 (44496) - http://www.bohemiancoding.com/sketch -->
    <title>Group 6</title>
    <desc>Created with Sketch.</desc>
    <defs>
        <polygon id="path-1" points="0.0393950785 0.449657869 0.49588498 0.449657869 0.49588498 0.087773216 0.0393950785 0.087773216 0.0393950785 0.449657869"></polygon>
        <polygon id="path-3" points="0.369163383 3.59726295 3.43997095 3.59726295 3.43997095 0.394979472 0.369163383 0.394979472 0.369163383 3.59726295"></polygon>
        <polygon id="path-5" points="1.64975781e-20 0.368503617 1.64975781e-20 25.5479054 14.9904954 25.5479054 14.9904954 0.368503617 0 0.368503617"></polygon>
        <polygon id="path-7" points="2.89655624 0.425436298 0.131809937 0.425436298 0.131809937 6.19774832 2.89655624 6.19774832"></polygon>
        <polygon id="path-9" points="15.0113097 0.0379199533 0.0182523302 0.0379199533 0.0182523302 7.72080995 15.0113097 7.72080995 15.0113097 0.0379199533"></polygon>
    </defs>
    <g id="Page-1" stroke="none" stroke-width="1" fill="none" fill-rule="evenodd">
        <g id="AF1-G11-P101-TD-网站首页V1.0.14" transform="translate(-124.000000, -51.000000)">
            <g id="Group-6" transform="translate(125.000000, 52.000000)">
                <path d="M60.7854976,44.8301595 C63.3555954,44.3135554 65.0590067,43.3552316 65.8957828,41.9551595 L60.5613623,41.9551595 L60.5613623,41.1465658 L66.265606,41.1465658 C66.5046849,40.5775525 66.6279581,39.0427371 66.6354293,36.5420736 L67.5319706,36.5420736 C67.5020857,38.9603799 67.3900192,40.4951953 67.1957676,41.1465658 L71.4207183,41.1465658 L71.4207183,41.9551595 L66.9155985,41.9551595 C66.8558287,42.0899258 66.7885888,42.2209466 66.7138767,42.3482259 C67.9391559,42.9322132 69.4557897,43.767003 71.2638236,44.8526204 L70.7595191,45.6499837 C69.0784958,44.5568793 67.5805398,43.6734246 66.265606,42.9995931 C65.2719345,44.2199768 63.6432342,45.1146619 61.3794562,45.6836751 C61.2524455,45.4665516 61.0544613,45.1820493 60.7854976,44.8301595 Z M61.0208397,36.0703939 L61.0208397,35.2618001 L71.006068,35.2618001 L71.006068,35.9805501 C70.6100936,36.9538623 70.2066541,37.7811652 69.7957373,38.4624837 C69.437119,38.2902823 69.1532171,38.1704919 68.9440231,38.1031087 C69.325055,37.4966604 69.6724613,36.8190955 69.9862523,36.0703939 L61.0208397,36.0703939 Z M61.4803171,38.9453939 L61.9510012,38.3389486 C62.9297303,38.9079618 63.815056,39.4769666 64.6070047,40.0459798 L64.0802867,40.7422689 C63.2136258,40.0908984 62.3469779,39.4919461 61.4803171,38.9453939 Z M62.6009936,37.1372884 L63.060471,36.5308431 C63.964488,37.0549343 64.8161937,37.5977348 65.6156136,38.1592611 L65.0888956,38.8667806 C64.3193605,38.2753063 63.4900682,37.6988147 62.6009936,37.1372884 Z M96.0868098,37.7100423 L100.748824,37.7100423 L100.748824,36.5196126 L96.7592157,36.5196126 L96.7592157,35.7110189 L100.748824,35.7110189 L100.748824,34.5767415 L101.634159,34.5767415 L101.634159,35.7110189 L105.769455,35.7110189 L105.769455,36.5196126 L101.634159,36.5196126 L101.634159,37.7100423 L106.24014,37.7100423 L106.24014,38.5747884 L105.377219,40.1021322 C105.123197,39.9823399 104.857973,39.8737798 104.581538,39.7764486 L105.298771,38.5186361 L96.0868098,38.5186361 L96.0868098,37.7100423 Z M95.9075015,41.9102376 L101.297956,41.9102376 C101.596804,41.183997 101.761169,40.1957257 101.791054,38.9453939 L102.665181,38.9453939 C102.627825,40.1433165 102.482139,41.1315879 102.228117,41.9102376 L106.553929,41.9102376 L106.553929,42.7188314 L101.903121,42.7188314 C101.865765,42.7937015 101.832145,42.8535968 101.80226,42.8985189 C103.266618,43.4300971 104.857963,44.0664839 106.576343,44.8076986 L106.094452,45.6275228 C104.66745,44.9312302 103.07984,44.2237178 101.331576,43.5049642 C100.367789,44.4408413 98.6419648,45.1446103 96.1540504,45.6162923 C96.0419821,45.3542467 95.8888245,45.0734878 95.694573,44.7740072 C98.4290375,44.2798641 100.13992,43.5948123 100.827272,42.7188314 L95.9075015,42.7188314 L95.9075015,41.9102376 Z M97.1514525,40.0909017 C98.1675377,40.3903824 99.1462521,40.7085758 100.087625,41.0454915 L99.8186628,41.7305501 C98.7652215,41.3636863 97.7865071,41.0492363 96.8824901,40.7871908 L97.1514525,40.0909017 Z M97.8126517,38.7881673 C98.8063232,39.0726739 99.7626243,39.3758936 100.681584,39.6978353 L100.412621,40.4165853 C99.5086044,40.0796695 98.5485677,39.7614761 97.5324826,39.4619954 L97.8126517,38.7881673 Z M135.926862,45.5826009 L135.097561,45.5826009 L135.097561,35.1607259 L141.675933,35.1607259 L141.675933,44.1338704 C141.675933,45.0397995 141.272493,45.4927572 140.465602,45.4927572 C139.950088,45.4927572 139.288896,45.4815268 138.482005,45.4590658 C138.437177,45.1745591 138.381144,44.875083 138.313903,44.5606283 C139.053553,44.6055504 139.669919,44.6280111 140.16302,44.6280111 C140.618764,44.6280111 140.846632,44.395917 140.846632,43.931722 L140.846632,35.9468587 L135.926862,35.9468587 L135.926862,45.5826009 Z M134.58205,43.2017415 C134.58205,43.5311703 134.600728,43.8418768 134.638084,44.1338704 C134.174869,44.3584809 133.67804,44.6392399 133.147584,44.9761556 C133.013102,45.0510258 132.856209,45.1783031 132.6769,45.3579915 L132.082941,44.5830892 C132.32202,44.3584787 132.441558,44.0777198 132.441558,43.740804 L132.441558,41.2139486 L131.163987,41.2139486 L131.163987,40.4278158 L132.441558,40.4278158 L132.441558,39.0127767 L131.735532,39.0127767 L131.735532,38.37264 C131.630935,38.5373543 131.530075,38.6983228 131.432949,38.8555501 C131.231226,38.5036603 131.05192,38.2303883 130.895024,38.0357259 C131.60479,36.9575955 132.135238,35.8008688 132.486385,34.5655111 L133.338099,34.8013509 C133.173732,35.295494 132.998162,35.7634255 132.811381,36.2051595 L134.682911,36.2051595 L134.682911,36.9912923 L132.463971,36.9912923 C132.262249,37.4255393 132.045587,37.837319 131.813979,38.2266439 L134.436362,38.2266439 L134.436362,39.0127767 L133.259652,39.0127767 L133.259652,40.4278158 L134.750152,40.4278158 L134.750152,41.2139486 L133.259652,41.2139486 L133.259652,43.9654134 C133.625741,43.7482899 134.066536,43.4937352 134.58205,43.2017415 Z M136.857024,39.2710775 L139.905264,39.2710775 L139.905264,43.022054 L137.619084,43.022054 L137.619084,43.4937337 L136.857024,43.4937337 L136.857024,39.2710775 Z M139.143204,40.0235189 L137.619084,40.0235189 L137.619084,42.2696126 L139.143204,42.2696126 L139.143204,40.0235189 Z M136.397546,37.2608236 L140.443189,37.2608236 L140.443189,38.0020345 L136.397546,38.0020345 L136.397546,37.2608236 Z M170.735077,40.5176595 L176.764317,40.5176595 L176.764317,45.5713704 L175.935016,45.5713704 L175.935016,44.8301595 L171.564377,44.8301595 L171.564377,45.5713704 L170.735077,45.5713704 L170.735077,40.5176595 Z M171.116107,35.1944173 L176.383287,35.1944173 L176.383287,39.6866048 L175.553986,39.6866048 L175.553986,39.0801595 L171.945407,39.0801595 L171.945407,39.6866048 L171.116107,39.6866048 L171.116107,35.1944173 Z M175.935016,41.3037923 L171.564377,41.3037923 L171.564377,44.0440267 L175.935016,44.0440267 L175.935016,41.3037923 Z M170.163532,43.212972 C170.163532,43.5573748 170.182209,43.8680813 170.219565,44.1451009 C169.56957,44.4820167 168.971882,44.8151839 168.426483,45.1446126 C168.292001,45.2194828 168.135108,45.3505036 167.955799,45.537679 L167.384254,44.7515462 C167.615861,44.5194487 167.731663,44.2349463 167.731663,43.8980306 L167.731663,41.3150228 L166.241164,41.3150228 L166.241164,40.5401204 L167.731663,40.5401204 L167.731663,38.9790853 L167.036844,38.9790853 L167.036844,38.2041829 L169.872156,38.2041829 L169.872156,38.9790853 L168.560964,38.9790853 L168.560964,40.5401204 L170.208359,40.5401204 L170.208359,41.3150228 L168.560964,41.3150228 L168.560964,44.100179 C168.702917,44.0253089 169.237101,43.7295762 170.163532,43.212972 Z M175.553986,35.9693197 L171.945407,35.9693197 L171.945407,38.3052572 L175.553986,38.3052572 L175.553986,35.9693197 Z M166.140303,37.990804 C166.86501,36.9800568 167.444021,35.8233301 167.877351,34.5205892 L168.717859,34.8013509 C168.516136,35.302981 168.30321,35.7858864 168.079073,36.2500814 L170.141118,36.2500814 L170.141118,37.0249837 L167.67563,37.0249837 C167.346896,37.6314321 166.992019,38.2079237 166.610987,38.7544759 C166.469034,38.4849433 166.312141,38.2303886 166.140303,37.990804 Z" id="买-卖-铜-铝-copy" fill="#4D4D4D"></path>
                <ellipse id="Oval-6-Copy" fill="#999999" cx="83.6771845" cy="41.6875" rx="1.43446602" ry="1.4375"></ellipse>
                <ellipse id="Oval-6-Copy-2" fill="#999999" cx="119.06068" cy="41.6875" rx="1.43446602" ry="1.4375"></ellipse>
                <ellipse id="Oval-6-Copy-3" fill="#999999" cx="154.444175" cy="41.6875" rx="1.43446602" ry="1.4375"></ellipse>
                <g id="Group-2" transform="translate(43.990291, 1.916667)">
                    <g id="Group-24">
                        <g id="Group-33" transform="translate(52.496339, 26.580850)">
                            <mask id="mask-2" fill="white">
                                <use xlink:href="#path-1"></use>
                            </mask>
                            <g id="Clip-32"></g>
                            <path d="M0.0540027553,0.0882228739 C0.0530897755,0.0882228739 0.0517203058,0.087773216 0.050807326,0.087773216 C0.0471554068,0.087773216 0.0430469977,0.0882228739 0.0393950785,0.0882228739 L0.0540027553,0.0882228739 Z" id="Fill-31" fill="#FF6724" mask="url(#mask-2)"></path>
                        </g>
                        <path d="M111.735094,1.53109104 L108.394318,1.53109104 L108.057855,3.74700502 C108.259441,3.72062509 108.44788,3.69376553 108.771683,3.69376553 C109.445097,3.69376553 110.118511,3.84005422 110.657047,4.1585319 C111.344582,4.54319922 111.910386,5.28663356 111.910386,6.37444588 C111.910386,8.05988348 110.549924,9.32084405 108.65044,9.32084405 C107.693637,9.32084405 106.885345,9.05512623 106.467566,8.78988804 L106.764102,7.90064464 C107.127833,8.11312297 107.842148,8.37836116 108.636806,8.37836116 C109.755267,8.37836116 110.711096,7.66226601 110.711096,6.50730479 C110.697462,5.39263291 109.943219,4.59643871 108.191758,4.59643871 C107.693637,4.59643871 107.302638,4.64919857 106.979808,4.68948791 L107.545612,0.548798436 L111.735094,0.548798436 L111.735094,1.53109104 Z" id="Fill-1" fill="#FF6724"></path>
                        <polygon id="Fill-3" fill="#FF6724" points="115.991625 1.63733021 115.964844 1.63733021 114.442237 2.44695419 114.213384 1.55771079 116.126502 0.549038254 117.136867 0.549038254 117.136867 9.17479518 115.991625 9.17479518"></polygon>
                        <path d="M121.137861,2.75219394 L122.566492,6.54706654 C122.714516,6.9720232 122.875687,7.47611965 122.983784,7.8612666 L123.010565,7.8612666 C123.131809,7.47611965 123.266686,6.98545298 123.428345,6.52068661 L124.721611,2.75219394 L125.974463,2.75219394 L124.196221,7.33031059 C123.347515,9.53327442 122.768078,10.6608964 121.959786,11.3506117 C121.380348,11.8556674 120.801397,12.0547159 120.504861,12.1079554 L120.208326,11.1256628 C120.504861,11.0326136 120.89586,10.8469949 121.245471,10.5548971 C121.569274,10.3030887 121.972933,9.85127247 122.242688,9.25460645 C122.296736,9.13469769 122.337151,9.04212812 122.337151,8.97545885 C122.337151,8.90926921 122.309883,8.81622001 122.256322,8.67089058 L119.844594,2.75219394 L121.137861,2.75219394 Z" id="Fill-5" fill="#FF6724"></path>
                        <path d="M127.645094,5.97673249 C127.645094,7.38302248 128.467019,8.44493451 129.625408,8.44493451 C130.757016,8.44493451 131.605722,7.39645226 131.605722,5.95035256 C131.605722,4.86206061 131.053552,3.48215054 129.652676,3.48215054 C128.251312,3.48215054 127.645094,4.75558162 127.645094,5.97673249 M132.818159,5.91054285 C132.818159,8.28569567 131.148015,9.32074813 129.571846,9.32074813 C127.806752,9.32074813 126.445804,8.04635777 126.445804,6.0165422 C126.445804,3.86633822 127.874434,2.60633692 129.679456,2.60633692 C131.551674,2.60633692 132.818159,3.94595764 132.818159,5.91054285" id="Fill-7" fill="#FF6724"></path>
                        <path d="M139.769855,7.42307201 C139.769855,8.0864073 139.783489,8.6706028 139.823417,9.17469925 L138.772638,9.17469925 L138.705442,8.12621701 L138.678662,8.12621701 C138.368492,8.64422287 137.681444,9.32098794 136.522569,9.32098794 C135.49857,9.32098794 134.272986,8.76317237 134.272986,6.50744868 L134.272986,2.75238579 L135.458643,2.75238579 L135.458643,6.30840013 C135.458643,7.52907136 135.835521,8.35212512 136.913567,8.35212512 C137.708225,8.35212512 138.260395,7.80821896 138.476102,7.2902131 C138.543784,7.11754448 138.584199,6.90554578 138.584199,6.69306745 L138.584199,2.75238579 L139.769855,2.75238579 L139.769855,7.42307201 Z" id="Fill-9" fill="#FF6724"></path>
                        <path d="M141.574585,7.9802161 C141.925169,8.20612421 142.544535,8.44498247 143.137119,8.44498247 C143.999459,8.44498247 144.404092,8.02002581 144.404092,7.48954943 C144.404092,6.93221349 144.066655,6.62668596 143.191168,6.30820828 C142.019632,5.89716103 141.466975,5.26020567 141.466975,4.4903914 C141.466975,3.45533894 142.315681,2.60590525 143.717044,2.60590525 C144.376824,2.60590525 144.955775,2.79200365 145.319993,3.00400235 L145.023457,3.85343604 C144.767336,3.69371756 144.295995,3.4821985 143.689777,3.4821985 C142.989095,3.4821985 142.598583,3.87981597 142.598583,4.35801212 C142.598583,4.8884885 142.989095,5.12734676 143.837801,5.44582444 C144.969409,5.87030147 145.54836,6.42763741 145.54836,7.38307045 C145.54836,8.51117211 144.659239,9.30736631 143.110339,9.30736631 C142.39651,9.30736631 141.736243,9.13469769 141.278049,8.8694595 L141.574585,7.9802161 Z" id="Fill-11" fill="#FF6724"></path>
                        <path d="M151.206498,5.33992102 C151.220131,4.59648667 150.896328,3.44200508 149.563134,3.44200508 C148.363844,3.44200508 147.838454,4.5298174 147.743991,5.33992102 L151.206498,5.33992102 Z M147.730844,6.17592493 C147.757625,7.75488355 148.781623,8.40526869 149.966793,8.40526869 C150.815986,8.40526869 151.327741,8.25897999 151.772302,8.07336123 L151.974374,8.90936514 C151.557082,9.0949839 150.842766,9.30746224 149.805621,9.30746224 C147.79804,9.30746224 146.598749,8.00669195 146.598749,6.06992558 C146.598749,4.13219993 147.757625,2.60600117 149.65711,2.60600117 C151.785448,2.60600117 152.351739,4.45067761 152.351739,5.63153913 C152.351739,5.87039739 152.324959,6.0564958 152.311325,6.17592493 L147.730844,6.17592493 Z" id="Fill-13" fill="#FF6724"></path>
                        <g id="Group-17" transform="translate(97.871435, 24.036192)">
                            <mask id="mask-4" fill="white">
                                <use xlink:href="#path-3"></use>
                            </mask>
                            <g id="Clip-16"></g>
                            <path d="M0.369163383,1.99621114 C0.369163383,1.05597654 1.0146401,0.394979472 1.91712064,0.394979472 C2.82051415,0.394979472 3.43997095,1.05597654 3.43997095,1.99621114 C3.43997095,2.91081525 2.84653408,3.59744282 1.89201369,3.59744282 C0.988620179,3.59744282 0.369163383,2.91081525 0.369163383,1.99621114" id="Fill-15" fill="#FF6724" mask="url(#mask-4)"></path>
                        </g>
                        <path d="M116.622141,26.6227196 C116.007645,26.9387991 114.644748,27.359439 112.907896,27.359439 C109.006185,27.359439 106.467371,24.7540614 106.467371,20.8579858 C106.467371,16.9360099 109.193163,14.0927333 113.415269,14.0927333 C114.804946,14.0927333 116.034425,14.4351927 116.675216,14.7512722 L116.141061,16.5412703 C115.57964,16.2251907 114.697823,15.9354912 113.415269,15.9354912 C110.448937,15.9354912 108.845501,18.0938489 108.845501,20.7524661 C108.845501,23.7007828 110.769819,25.5171608 113.335414,25.5171608 C114.671042,25.5171608 115.553346,25.1747013 116.221404,24.8850018 L116.622141,26.6227196 Z" id="Fill-18" fill="#FF6724"></path>
                        <path d="M120.65795,20.752562 C120.65795,23.5430788 122.288167,25.6486767 124.586441,25.6486767 C126.831154,25.6486767 128.514445,23.5694587 128.514445,20.7002818 C128.514445,18.5414444 127.41887,15.8036875 124.640003,15.8036875 C121.860649,15.8036875 120.65795,18.330405 120.65795,20.752562 M130.919356,20.6206624 C130.919356,25.3330768 127.605848,27.3859149 124.479318,27.3859149 C120.978832,27.3859149 118.27982,24.8591974 118.27982,20.8312222 C118.27982,16.5672665 121.112736,14.0664493 124.693077,14.0664493 C128.407809,14.0664493 130.919356,16.725546 130.919356,20.6206624" id="Fill-20" fill="#FF6724"></path>
                        <path d="M133.886565,17.8045331 C133.886565,16.4884145 133.859784,15.4092356 133.779442,14.3564366 L135.837176,14.3564366 L135.943812,16.4092747 L136.024155,16.4092747 C136.745774,15.1981962 137.947986,14.0662574 140.086063,14.0662574 C141.849696,14.0662574 143.185812,15.119536 143.747233,16.6198345 L143.800308,16.6198345 C144.201532,15.9090153 144.708906,15.3559961 145.243546,14.9612564 C146.018727,14.3823369 146.873763,14.0662574 148.102756,14.0662574 C149.812828,14.0662574 152.351642,15.1718162 152.351642,19.5945311 L152.351642,27.0965031 L150.053854,27.0965031 L150.053854,19.8842307 C150.053854,17.4356937 149.145257,15.9617752 147.24772,15.9617752 C145.911604,15.9617752 144.869103,16.935914 144.468366,18.0673731 C144.361243,18.3834526 144.281387,18.8050518 144.281387,19.2256918 L144.281387,27.0965031 L141.983113,27.0965031 L141.983113,19.4626315 C141.983113,17.4356937 141.074516,15.9617752 139.284588,15.9617752 C137.815056,15.9617752 136.745774,17.1200938 136.371817,18.2784125 C136.237914,18.6208719 136.184839,19.0156116 136.184839,19.4103513 L136.184839,27.0965031 L133.886565,27.0965031 L133.886565,17.8045331 Z" id="Fill-22" fill="#FF6724"></path>
                        <g id="Group-26" transform="translate(0.000000, 1.493344)">
                            <mask id="mask-6" fill="white">
                                <use xlink:href="#path-5"></use>
                            </mask>
                            <g id="Clip-25"></g>
                            <path d="M14.5181805,15.0069657 C13.119252,10.6854538 9.14499001,10.1309956 5.83927274,10.1309956 C5.11960119,10.1309956 4.37996582,10.1636108 3.69924808,10.1971853 C3.81708334,9.11608785 3.91836323,7.9376245 4.01672159,6.79369488 C4.11654072,5.63297804 4.21928138,4.43628856 4.34003817,3.34080209 L12.6089571,3.34080209 C13.4552285,3.34080209 14.118417,2.6884984 14.118417,1.85489267 C14.118417,1.43521199 13.9577326,1.05534102 13.6543798,0.757008016 C13.3008741,0.408792962 12.8884507,0.368503617 12.6089571,0.368503617 L2.94257042,0.368503617 C2.178102,0.368503617 1.53049499,0.927758097 1.43554509,1.67982587 L0.456343824,11.6519184 C0.456343824,11.9962964 0.61897596,12.5229357 0.94229254,12.8390152 C1.27534757,13.120561 1.6385918,13.2754831 1.96531684,13.2754831 C2.27159113,13.2754831 2.69034454,13.2754831 2.92406736,13.2409494 C3.19577015,13.2299178 3.47136832,13.2150491 3.74940111,13.2001804 C4.31958743,13.1699634 4.90973757,13.1383075 5.48966234,13.1383075 C8.96336789,13.1383075 10.8526274,14.0160396 11.6132005,15.9801452 C11.8259856,16.5475535 11.9379778,17.1792328 11.9379778,17.8056362 C11.9379778,18.6900833 11.7412611,19.5831638 11.3965199,20.2949422 L11.2708939,20.510778 L10.8945028,20.9841778 C10.7201845,21.2244749 10.572647,21.3904287 10.4387433,21.496428 C9.59393261,22.1895007 8.08155113,22.5410732 5.94347417,22.5410732 C5.18825727,22.5410732 4.41940655,22.4720057 3.63984353,22.4034179 C3.68171887,22.4034179 3.70947346,22.4115717 3.69437886,22.4062957 C3.6607812,22.3952641 3.61403663,22.3799158 3.55901438,22.3727213 C3.40222532,22.3405857 3.14269559,22.2724775 2.86758435,22.2010119 C1.87718386,21.942009 1.54510267,21.9434479 1.27972988,21.9631129 C0.716360472,22.0297822 0.243558665,22.488793 0.0862826778,23.0322195 C-0.00379799598,23.3569324 -0.0894963668,23.8418435 0.193892564,24.2879041 C0.370645454,24.592952 0.670102829,24.8298917 1.0601278,24.9737822 L1.15361693,24.9944065 C1.17163307,24.9982436 1.19208381,25.0059178 1.21253456,25.0131123 C1.26658297,25.0303791 1.32598752,25.0500442 1.39074822,25.0601165 L1.40925128,25.0668314 C1.49689734,25.0970484 1.60596799,25.13446 1.70676096,25.1320618 C1.83433467,25.1483694 1.97797683,25.1800253 2.12210591,25.2116812 C2.2925288,25.2486131 2.4629517,25.285545 2.62168845,25.30521 L3.27513853,25.3728386 C4.1939614,25.4908288 5.03244205,25.5479054 5.83927274,25.5479054 C8.56068293,25.5479054 10.9144666,24.9152667 12.301709,23.8087486 C12.9834006,23.2485349 13.678726,22.3343505 14.074594,21.6604632 C14.6481888,20.5654564 14.9904954,19.1246326 14.9904954,17.8056362 C14.9904954,16.8871351 14.8268894,15.9177926 14.5181805,15.0069657" id="Fill-24" fill="#FF6724" mask="url(#mask-6)"></path>
                        </g>
                        <path d="M31.0771021,23.3473397 L27.770411,23.3473397 L27.770411,3.6228275 C27.770411,3.1139347 27.5707727,2.6980911 27.1763654,2.40791189 C26.7985135,2.1589813 26.3588225,2.08223969 25.8319723,2.18823904 L21.8513803,3.39212304 C21.0713304,3.6324202 20.6262832,4.46362776 20.8604929,5.24639218 C20.9812497,5.64353001 21.2300671,5.95049645 21.6186313,6.16777113 C21.979441,6.34715464 22.3860213,6.39367924 22.7843239,6.29487442 L24.7178934,5.69628987 L24.7178934,23.3473397 L21.6196052,23.3473397 C20.7733338,23.3473397 20.1111191,24.000123 20.1111191,24.8332491 C20.1111191,25.7344834 20.7455792,26.3887056 21.6196052,26.3887056 L31.0771021,26.3887056 C31.8897758,26.3887056 32.5510167,25.7220129 32.5510167,24.9023166 C32.5510167,24.0447291 31.8897758,23.3473397 31.0771021,23.3473397" id="Fill-27" fill="#FF6724"></path>
                        <path d="M59.9539472,3.05493959 L43.4112401,3.05493959 L37.2721204,3.05493959 C36.5134951,3.05493959 35.8989988,3.67270955 35.9189626,4.4545147 C35.9379526,5.18595816 36.5879942,5.75048863 37.3305512,5.75048863 L41.9991647,5.75048863 C40.6401638,8.08870955 39.0888285,10.2163707 37.3797303,12.08359 C36.6994995,12.8409337 35.9915141,13.5685401 35.2801202,14.2400292 C35.0152344,14.4812856 34.8584453,14.8256636 34.8511415,15.1849103 C34.8438376,15.5316864 34.9714113,15.851603 35.2095165,16.0861445 L35.2937541,16.1484971 C35.5235815,16.4089389 35.8405681,16.5456349 36.2164723,16.5456349 C36.4740544,16.5456349 36.8553147,16.5072641 37.193239,16.174877 L37.5667086,15.8084358 C38.1003757,15.2861133 38.6496244,14.7484424 39.1764746,14.1661654 L39.2047161,26.3023713 C39.2047161,27.0371722 39.8114216,27.6352772 40.5875762,27.6352772 C41.3213685,27.6352772 41.9412209,27.0112719 41.9412209,26.2697561 L41.9110317,22.8662658 L41.9110317,13.2807591 L41.9110317,12.3219686 C41.9110317,12.0792732 41.9787139,11.72866 42.3137166,11.4260103 C42.575681,11.1670074 42.9004583,11.0303114 43.2525033,11.0303114 L55.930993,11.0303114 C56.3005672,11.0303114 56.8332605,11.2255228 57.0767218,11.4989148 C57.2919416,11.7411305 57.4092899,12.0298708 57.4092899,12.3219686 L57.4092899,19.8368907 L57.4092899,22.5621771 L57.4092899,22.8662658 L57.4092899,23.4706059 C57.4092899,23.8169024 57.270517,24.136819 57.0075788,24.3963016 C56.7407452,24.6591416 56.4145071,24.7920005 56.038116,24.7920005 L56.0536975,24.7920005 C55.1821061,24.7920005 54.4395492,25.7028275 54.7881857,26.6294824 C54.9926932,27.172909 55.5550888,27.4947441 56.1428043,27.4865903 C56.609763,27.4808347 57.1147017,27.4275952 57.6503166,27.1633163 C58.6562986,26.7340429 59.4056724,25.9949253 59.8122527,25.0390126 C60.030394,24.5780833 60.1457947,24.035616 60.1457947,23.4706059 L60.1457947,12.3219686 C60.1457947,11.7411305 60.036724,11.2284007 59.817122,10.7650732 C59.1597765,9.24319114 57.7472141,8.33476233 56.038116,8.33476233 L43.6430152,8.33476233 C44.1523362,7.51794383 44.6397457,6.66611196 45.122286,5.75048863 L60.0123779,5.75048863 C60.7705163,5.75048863 61.3850126,5.13319831 61.3650488,4.35091352 C61.3465457,3.61994969 60.6965041,3.05493959 59.9539472,3.05493959" id="Fill-34" fill="#FF6724"></path>
                        <path d="M40.3591418,16.736146 C39.7648348,16.736146 40.805738,16.2396143 40.805738,15.5638085 L40.5897075,15.489338 C40.5897075,14.8135322 39.7648348,14.2890479 40.3591418,14.2890479 L55.4198126,14.2890479 C56.0145416,14.2890479 56.4965718,14.8367911 56.4965718,15.5125969 C56.4965718,16.1884027 56.0145416,16.736146 55.4198126,16.736146 L40.3591418,16.736146 Z" id="Fill-36" fill="#FF6724"></path>
                        <path d="M41.2769334,22.401979 C40.6826265,22.401979 40.2001742,21.8542358 40.2001742,21.17843 L40.1899729,21.2199706 C40.1899729,20.5441648 40.6826265,19.9548809 41.2769334,19.9548809 L55.4246245,19.9548809 C56.0193535,19.9548809 56.5013837,20.5026242 56.5013837,21.17843 C56.5013837,21.8542358 56.0193535,22.401979 55.4246245,22.401979 L41.2769334,22.401979 Z" id="Fill-38" fill="#FF6724"></path>
                        <g id="Group-42" transform="translate(42.362263, 0.054439)" fill="#FF6724">
                            <path d="M0,3.87807866 L0,1.7682812 C0,1.02647175 0.654075082,0.425004627 1.46076768,0.425004627 C2.26746029,0.425004627 2.92153537,1.02647175 2.92153537,1.7682812 L2.92153537,3.87807866 C2.92153537,4.61988811 2.26746029,5.22135523 1.46076768,5.22135523 C0.654075082,5.22135523 0,4.61988811 0,3.87807866 Z" id="Fill-40"></path>
                        </g>
                        <g id="Group-48" transform="translate(66.221468, 0.000000)">
                            <path d="M21.7451825,12.7937856 L21.7451825,15.9795217 C21.7451825,16.3440443 21.6117657,16.6347032 21.3127953,16.9047377 C21.0104164,17.2025911 20.7382267,17.330174 20.4032239,17.330174 L13.5824127,17.330174 L13.5824127,11.4431333 L20.4032239,11.4431333 C20.7591643,11.4431333 21.031354,11.5616031 21.3244814,11.8503434 C21.6151742,12.1122242 21.7451825,12.4038423 21.7451825,12.7937856 L21.7451825,12.7937856 Z M2.83311023,17.330174 L2.83311023,12.7937856 C2.83311023,12.3865754 2.94802395,12.0925591 3.19440677,11.8498638 C3.50555029,11.568318 3.8079292,11.4431333 4.17458189,11.4431333 L10.8162056,11.4431333 L10.8162056,17.330174 L2.83311023,17.330174 Z M23.8389495,25.0283167 L4.17458189,25.0283167 C3.8079292,25.0283167 3.50555029,24.9026523 3.20560599,24.6326178 C2.95143241,24.3822483 2.83311023,24.0973451 2.83311023,23.7361799 L2.83311023,20.025723 L20.4032239,20.025723 C21.0386579,20.025723 21.5835242,19.9005383 21.9837746,19.6727116 C23.5429006,19.018969 24.5118765,17.603566 24.5118765,15.9795217 L24.5118765,12.7937856 C24.5118765,12.2508387 24.3857636,11.6982991 24.1544753,11.2114695 C23.5200152,9.69918019 22.0777506,8.71448941 20.4674977,8.68858912 L22.1610144,5.50429195 C22.389868,5.09132616 22.3825641,4.60641512 22.1415375,4.20639948 C21.8966154,3.79918931 21.459359,3.55649397 20.9724364,3.55649397 L5.59152654,3.55649397 L2.83311023,3.55649397 L2.17917323,4.34501401 C1.97369191,4.75030564 1.9951165,5.22418508 2.23809086,5.61077094 C2.48982982,6.01222548 2.92611244,6.25204301 3.40427039,6.25204301 L18.6376427,6.25204301 L17.365801,8.68810948 L4.17458189,8.68810948 C3.6073171,8.68810948 3.07705843,8.80562007 2.56238129,9.04255979 C1.59827461,9.45408667 0.828936968,10.222462 0.392167431,11.2153066 C0.179382272,11.7395477 0.0669031599,12.2848928 0.0669031599,12.7937856 L0.0669031599,23.7361799 C0.0669031599,24.239317 0.173052278,24.7462913 0.400445114,25.3041069 C0.860586935,26.2744086 1.6304115,27.0192819 2.53560055,27.3862027 C3.01181081,27.6365722 3.53233103,27.7531235 4.17458189,27.7531235 L23.8389495,27.7531235 C24.5854018,27.7531235 25.1921073,27.1550186 25.1921073,26.4202177 L25.1921073,26.3612225 C25.1921073,25.6264216 24.5854018,25.0283167 23.8389495,25.0283167 L23.8389495,25.0283167 Z" id="Fill-29" fill="#FF6724"></path>
                            <g id="Group-45" transform="translate(1.947690, 0.054439)">
                                <mask id="mask-8" fill="white">
                                    <use xlink:href="#path-7"></use>
                                </mask>
                                <g id="Clip-44"></g>
                                <path d="M1.67438061,6.19774832 L1.35398557,6.19774832 C0.678623974,6.19774832 0.131809937,5.65863851 0.131809937,4.99386432 L0.131809937,1.62922437 C0.131809937,0.964450179 0.678623974,0.425340371 1.35398557,0.425340371 L1.67438061,0.425340371 C2.34925528,0.425340371 2.89655624,0.964450179 2.89655624,1.62922437 L2.89655624,4.99386432 C2.89655624,5.65863851 2.34925528,6.19774832 1.67438061,6.19774832" id="Fill-43" fill="#FF6724" mask="url(#mask-8)"></path>
                            </g>
                        </g>
                    </g>
                </g>
                <g id="Group-46" stroke="#72443B" fill="#72443B">
                    <path d="M23.3838748,21.8435974 L12.2534731,21.8435974 L12.2534731,24.4582807 C10.6258479,24.6653031 8.10295354,27.7268269 6.22643298,31.9315861 C4.08769231,36.7243607 5.45711989,37.4445836 6.99272916,38.1563514 C7.49454254,38.3889954 7.95210784,38.5911497 8.41520415,38.5911497 C8.76893732,38.5911497 9.12593882,38.4732904 9.50833268,38.160707 C9.74063507,39.1210042 10.3100776,41.2657875 11.024332,42.458985 C11.9490162,44.0031982 13.6761995,45.6693702 15.6487585,45.6693702 C16.4618168,45.6693702 16.957345,44.7851691 16.957345,44.051623 L16.957345,42.3567548 C16.957345,42.1771475 17.1001456,42.0316169 17.2761322,42.0316169 L18.6583817,42.0316169 C18.8343683,42.0316169 18.9771689,42.1771475 18.9771689,42.3567548 L18.9771689,44.051623 C18.9771689,44.7851691 19.4726971,45.6693702 20.2857554,45.6693702 C22.2583144,45.6693702 23.9857491,44.0031982 24.9101819,42.458985 C25.6244363,41.2657875 26.1941302,39.1210042 26.4261812,38.160707 C26.8088265,38.4730342 27.165828,38.5911497 27.5195612,38.5911497 C27.9826575,38.5911497 28.4399714,38.3889954 28.9417847,38.1563514 C30.477394,37.4445836 31.847073,36.7243607 29.7080809,31.9315861 C27.7641826,27.576172 25.1268969,24.4475196 23.5095795,24.4475196 C23.4668399,24.4475196 23.4251059,24.4498256 23.3838748,24.4541812 L23.3838748,21.8435974 Z M22.8810558,22.3560292 L22.8810558,24.4541812 L22.8810558,25.0227243 L23.4359165,24.9637946 C23.4600518,24.9612325 23.4844386,24.9599514 23.5095795,24.9599514 C24.1282983,24.9599514 25.0979848,25.6806867 26.10312,26.8877198 C27.2173669,28.2261917 28.3351336,30.0927245 29.2505156,32.1437328 C31.2127668,36.5409101 30.1186326,37.0479614 28.7336177,37.6900384 C28.2426149,37.9175581 27.8680147,38.0787179 27.5195612,38.0787179 C27.2535699,38.0787179 27.0061829,37.9777689 26.7406945,37.760754 L26.1262497,37.2590833 L25.9379439,38.0382358 C25.7282684,38.9057829 25.1663682,41.0472354 24.4810259,42.192008 C23.6621851,43.5596885 22.07202,45.1569384 20.2857554,45.1569384 C19.7864561,45.1569384 19.4799879,44.5130679 19.4799879,44.051623 L19.4799879,42.3567548 C19.4799879,41.8950538 19.1114216,41.5191851 18.6583817,41.5191851 L17.2761322,41.5191851 C16.8230923,41.5191851 16.4545259,41.8950538 16.4545259,42.3567548 L16.4545259,44.051623 C16.4545259,44.5130679 16.1480578,45.1569384 15.6487585,45.1569384 C13.8624939,45.1569384 12.2723288,43.5596885 11.453488,42.192008 C10.7681457,41.0472354 10.2064969,38.9057829 9.99656995,38.0382358 L9.80826423,37.2590833 L9.1940708,37.760754 C8.92858236,37.9777689 8.680944,38.0787179 8.41520415,38.0787179 C8.06649916,38.0787179 7.69215041,37.9175581 7.20089623,37.6900384 C5.81588126,37.0479614 4.72174709,36.5409101 6.6842497,32.1437328 C8.66963057,27.6950561 11.0675744,25.1254669 12.3158226,24.966613 L12.7562921,24.9105017 L12.7562921,24.4582807 L12.7562921,22.3560292 L22.8810558,22.3560292 L22.8810558,22.3560292 Z" id="Fill-3"></path>
                    <path d="M31.1306313,2.9324299 C28.7583312,2.9324299 26.4876006,5.88096249 26.4876006,5.88096249 C17.2294455,9.985285 24.1029814,26.9611257 30.0033111,26.9611257 C30.1385694,26.9611257 30.2735763,26.9521581 30.4075776,26.9339668 C34.8809069,26.3262227 36.9062619,12.7252578 34.8452068,6.78463597 C33.8325293,3.86608064 32.4656158,2.9324299 31.1306313,2.9324299 M31.1308827,3.4448617 L31.1306313,3.4448617 C32.4726553,3.4448617 33.5630183,4.62601701 34.3710485,6.95553197 C35.9343128,11.4605762 35.0410548,20.4663088 32.6333059,24.4758315 C31.9223199,25.6598051 31.1512469,26.3159741 30.3412055,26.4258907 C30.2305853,26.4410074 30.1169482,26.4486939 30.0033111,26.4486939 C27.2146768,26.4486939 23.8392528,21.8982995 22.7800646,16.7106962 C22.3129457,14.4226882 22.3639818,12.2943027 22.9281448,10.5553654 C23.5662221,8.58865212 24.8313147,7.17408414 26.6882253,6.35086245 L26.8046279,6.29910684 L26.8828163,6.19790156 C26.9041861,6.17023024 29.033876,3.4448617 31.1308827,3.4448617" id="Fill-16"></path>
                    <path d="M4.52275646,2.8427031 C3.18777198,2.8427031 1.82085849,3.77635384 0.808181,6.69490916 C-1.25287414,12.635531 0.77248085,26.2364959 5.2458102,26.84424 C5.37981147,26.8624313 5.51481837,26.8713989 5.65007669,26.8713989 C11.5504064,26.8713989 18.4239423,9.89555819 9.16578723,5.79123568 C9.16578723,5.79123568 6.89505657,2.8427031 4.52275646,2.8427031 M4.52275646,3.3551349 C6.61951175,3.3551349 8.74920168,6.08050343 8.77032008,6.10766231 L8.84875984,6.20963624 L8.96516244,6.26113564 C10.8220731,7.08435733 12.0871657,8.49892531 12.725243,10.4656386 C13.289406,12.2045759 13.3404421,14.3329614 12.8733232,16.6209694 C11.814135,21.8085727 8.43871094,26.3589671 5.65007669,26.3589671 C5.53643959,26.3589671 5.4228025,26.3512806 5.31218231,26.3361639 C4.50214088,26.2262473 3.73106792,25.5700783 3.02008184,24.3861047 C0.612332994,20.376582 -0.280924983,11.3708493 1.28233933,6.86580516 C2.09036948,4.5362902 3.18073251,3.3551349 4.52275646,3.3551349" id="Fill-20"></path>
                    <path d="M17.7158726,2.08397095 C10.8008541,2.08397095 5.15947618,8.05636359 4.84521429,15.5527284 C3.82625156,16.8084425 3.21381801,18.4195281 3.21381801,20.1761443 C3.21381801,24.0273255 6.18723824,29.058381 17.7158726,29.058381 C29.27895,29.058381 32.2179272,24.0273255 32.2179272,20.1761443 C32.2179272,18.4195281 31.6054936,16.8084425 30.5865309,15.5527284 C30.272269,8.05636359 24.6308911,2.08397095 17.7158726,2.08397095 M17.7158726,2.59640275 C24.3462955,2.59640275 29.7792549,8.29720654 30.0842147,15.5745068 L30.0915055,15.7464276 L30.1991088,15.8791475 C31.176589,17.0841308 31.7151081,18.6101527 31.7151081,20.1761443 C31.7151081,21.6862808 31.2429611,23.8633474 28.9930974,25.6578835 C26.5908796,27.5743785 22.7966073,28.5459492 17.7158726,28.5459492 C12.6484626,28.5459492 8.85846425,27.5741222 6.45121822,25.6576273 C4.07187865,23.7634232 3.71663702,21.4103363 3.71663702,20.1761443 C3.71663702,18.6101527 4.25515618,17.0841308 5.23263634,15.8791475 L5.34023961,15.7464276 L5.34753049,15.5745068 C5.65249022,8.29720654 11.0854497,2.59640275 17.7158726,2.59640275" id="Fill-28"></path>
                    <path d="M20.18758,0.122612609 C14.8468879,-0.232758845 11.3316801,3.87028259 11.3316801,3.87028259 L11.7786862,6.01480967 L12.9492489,5.23514469 L14.8385913,6.73093311 L15.1968499,5.84212016 L18.0865508,7.77193832 L18.479001,6.33943522 L22.2262597,7.78372425 L22.1425403,6.55235063 C23.1594918,6.82009625 23.9793382,6.92488855 24.5467694,6.9628085 C25.121743,7.00098467 25.4377647,6.97049498 25.4377647,6.97049498 C24.3697771,5.34378023 23.1014162,4.39347545 23.1014162,4.39347545 L26.3247375,3.82032049 C24.0695942,1.97838438 21.9761072,1.74548412 21.540666,1.71627551 C21.4866129,1.71268849 21.4579522,1.71217606 21.4579522,1.71217606 L22.5226715,0.554592617 C21.7116244,0.308369137 20.932255,0.172062278 20.18758,0.122612609 M20.1885856,0.122612609 L20.155651,0.634019547 C20.6260382,0.665277886 21.1006993,0.7331751 21.5746063,0.836173892 L21.0911458,1.36192892 L20.3230897,2.19898627 L21.4483987,2.22460786 C21.4534269,2.22486407 21.473791,2.2253765 21.5079827,2.22768245 C21.8262672,2.24894837 23.3012867,2.40600871 25.053611,3.52618463 L23.0149313,3.88847391 L21.8584476,4.09472771 L22.8029931,4.80598305 C22.8127981,4.8131571 23.5969443,5.4093715 24.4253386,6.43987185 C23.9255365,6.39810866 23.1828729,6.29690338 22.2682451,6.05631665 L21.5927077,5.87850281 L21.6409784,6.58770843 L21.6703933,7.02173816 L18.6567475,5.86005527 L18.1426151,5.66174416 L17.9945349,6.20159106 L17.787122,6.95922148 L15.4723947,5.41347095 L14.9632905,5.07321624 L14.7317423,5.64713986 L14.6246418,5.91283574 L13.2577284,4.83057978 L12.9743898,4.60613465 L12.6742069,4.80623927 L12.1180891,5.17672746 L11.8784958,4.0268305 C12.6193996,3.26151361 15.7534705,0.340908556 20.1548968,0.634019547 L20.1885856,0.122612609" id="Fill-83"></path>
                </g>
                <g id="Page-1">
                    <path d="M20.2857303,45.4131799 C19.6049133,45.4131799 19.2285533,44.6078934 19.2285533,44.0516486 L19.2285533,42.3565242 C19.2285533,42.0362544 18.9726184,41.7756828 18.6583565,41.7756828 L17.2761071,41.7756828 C16.9618452,41.7756828 16.7059103,42.0362544 16.7059103,42.3565242 L16.7059103,44.0516486 C16.7059103,44.6078934 16.3295503,45.4131799 15.6487333,45.4131799 C13.7583853,45.4131799 12.0917916,43.7498263 11.2390106,42.3255221 C10.5355668,41.1502598 9.96511862,38.97883 9.75242617,38.0994971 L9.65839902,37.7100489 L9.3511766,37.9608843 C9.03867458,38.2160753 8.74125714,38.3349595 8.41517901,38.3349595 C8.01669494,38.3349595 7.60010939,38.156377 7.09703896,37.9232205 C6.28624331,37.547608 5.69543096,37.2255446 5.4716765,36.4976352 C5.19537746,35.5990861 5.51693021,34.1401927 6.45519049,32.0376851 C8.23114725,28.0586521 10.7371972,24.9095025 12.2846227,24.7124725 L12.5048575,24.6845449 L12.5048575,22.0998389 L23.1324401,22.0998389 L23.1324401,24.7386065 L23.4099962,24.7088854 C23.4426795,24.7058109 23.4756141,24.7040173 23.5095544,24.7040173 C25.1975178,24.7040173 27.8705037,28.4327273 29.4792731,32.0376851 C30.4177848,34.1401927 30.7393376,35.5990861 30.4630385,36.4976352 C30.2392841,37.2255446 29.6482203,37.547608 28.8376761,37.9232205 C28.3346056,38.156377 27.9177687,38.3349595 27.519536,38.3349595 L27.5192846,38.3349595 C27.1934579,38.3349595 26.895789,38.2160753 26.583287,37.9608843 L26.2760646,37.7100489 L26.1820374,38.0994971 C25.9695964,38.9785738 25.3996511,41.1497473 24.6957044,42.3255221 C23.842672,43.7498263 22.1763298,45.4131799 20.2857303,45.4131799" id="Fill-1" fill="#F4F0EB"></path>
                    <g id="Group-5" transform="translate(5.028190, 21.841266)" fill="#72443B">
                        <path d="M18.3556846,0.00233156469 L7.22528295,0.00233156469 L7.22528295,2.61701483 C5.59765781,2.82403728 3.07476341,5.88556107 1.19824285,10.0903202 C-0.940497824,14.8830948 0.428929759,15.6033177 1.96453903,16.3150855 C2.4663524,16.5477296 2.9239177,16.7498839 3.38701402,16.7498839 C3.74074719,16.7498839 4.09774869,16.6320246 4.48014255,16.3194412 C4.71244493,17.2797384 5.28188747,19.4245217 5.99614188,20.6177191 C6.92082604,22.1619324 8.64800935,23.8281044 10.6205683,23.8281044 C11.4336267,23.8281044 11.9291548,22.9439033 11.9291548,22.2103572 L11.9291548,20.515489 C11.9291548,20.3358816 12.0719554,20.190351 12.2479421,20.190351 L13.6301915,20.190351 C13.8061782,20.190351 13.9489788,20.3358816 13.9489788,20.515489 L13.9489788,22.2103572 C13.9489788,22.9439033 14.4445069,23.8281044 15.2575653,23.8281044 C17.2301243,23.8281044 18.957559,22.1619324 19.8819917,20.6177191 C20.5962462,19.4245217 21.1659401,17.2797384 21.3979911,16.3194412 C21.7806363,16.6317684 22.1376378,16.7498839 22.491371,16.7498839 C22.9544673,16.7498839 23.4117812,16.5477296 23.9135946,16.3150855 C25.4492039,15.6033177 26.8188829,14.8830948 24.6798908,10.0903202 C22.7359925,5.73490612 20.0987067,2.60625376 18.4813894,2.60625376 C18.4386498,2.60625376 18.3969158,2.6085597 18.3556846,2.61291537 L18.3556846,0.00233156469 Z M17.8528656,0.514763366 L17.8528656,2.61291537 L17.8528656,3.18145846 L18.4077264,3.1225288 C18.4318617,3.11996664 18.4562484,3.11868556 18.4813894,3.11868556 C19.1001082,3.11868556 20.0697947,3.83942089 21.0749299,5.046454 C22.1891768,6.38492586 23.3069435,8.2514587 24.2223255,10.302467 C26.1845767,14.6996443 25.0904425,15.2066955 23.7054275,15.8487726 C23.2144248,16.0762923 22.8398246,16.2374521 22.491371,16.2374521 C22.2253798,16.2374521 21.9779928,16.136503 21.7125044,15.9194882 L21.0980595,15.4178174 L20.9097538,16.19697 C20.7000783,17.064517 20.138178,19.2059695 19.4528357,20.3507422 C18.633995,21.7184226 17.0438298,23.3156726 15.2575653,23.3156726 C14.758266,23.3156726 14.4517978,22.671802 14.4517978,22.2103572 L14.4517978,20.515489 C14.4517978,20.0537879 14.0832315,19.6779192 13.6301915,19.6779192 L12.2479421,19.6779192 C11.7949021,19.6779192 11.4263358,20.0537879 11.4263358,20.515489 L11.4263358,22.2103572 C11.4263358,22.671802 11.1198676,23.3156726 10.6205683,23.3156726 C8.8343038,23.3156726 7.24413867,21.7184226 6.4252979,20.3507422 C5.73995559,19.2059695 5.17830675,17.064517 4.96837981,16.19697 L4.78007409,15.4178174 L4.16588067,15.9194882 C3.90039223,16.136503 3.65275386,16.2374521 3.38701402,16.2374521 C3.03830903,16.2374521 2.66396027,16.0762923 2.1727061,15.8487726 C0.787691125,15.2066955 -0.306443048,14.6996443 1.65605956,10.302467 C3.64144044,5.8537903 6.03938431,3.28420103 7.28763251,3.12534718 L7.72810197,3.06923589 L7.72810197,2.61701483 L7.72810197,0.514763366 L17.8528656,0.514763366 L17.8528656,0.514763366 Z" id="Fill-3"></path>
                    </g>
                    <path d="M24.2488492,33.8953016 C24.2488492,37.6634688 21.4365824,40.718331 17.9673827,40.718331 C14.4981829,40.718331 11.6859161,37.6634688 11.6859161,33.8953016 C11.6859161,30.1271343 14.4981829,27.0722722 17.9673827,27.0722722 C21.4365824,27.0722722 24.2488492,30.1271343 24.2488492,33.8953016" id="Fill-6" fill="#EFDDD5"></path>
                    <path d="M17.9673072,27.3284881 C14.6424165,27.3284881 11.9372502,30.2744585 11.9372502,33.8953016 C11.9372502,37.5161447 14.6424165,40.4621151 17.9673072,40.4621151 C21.2924494,40.4621151 23.9973642,37.5161447 23.9973642,33.8953016 C23.9973642,30.2744585 21.2924494,27.3284881 17.9673072,27.3284881 M17.9673072,40.9745469 C14.3651118,40.9745469 11.4344312,37.7987508 11.4344312,33.8953016 C11.4344312,29.9918523 14.3651118,26.8160563 17.9673072,26.8160563 C21.5695026,26.8160563 24.5001833,29.9918523 24.5001833,33.8953016 C24.5001833,37.7987508 21.5695026,40.9745469 17.9673072,40.9745469" id="Fill-8" fill="#72443B"></path>
                    <path d="M20.0980531,31.9658677 C21.0984115,32.6614939 21.7618812,33.8782632 21.7618812,35.2638788 C21.7618812,37.4258286 20.1485864,39.1783453 18.1581773,39.1783453 C17.8187745,39.1783453 17.4906851,39.1263335 17.1791887,39.0310212 C17.7393291,39.4204694 18.4045586,39.6472204 19.1188131,39.6472204 C21.1092221,39.6472204 22.7225169,37.8947037 22.7225169,35.7327539 C22.7225169,33.939755 21.6122925,32.4293623 20.0980531,31.9658677" id="Fill-10" fill="#FFFFFF"></path>
                    <path d="M12.6796876,34.6829093 C12.6796876,30.914742 15.4919544,27.8598798 18.9611541,27.8598798 C20.517379,27.8598798 21.9406082,28.4760791 23.0377593,29.4940248 C21.8855495,28.0141218 20.1644,27.073297 18.2403631,27.073297 C14.7711633,27.073297 11.9588966,30.1281592 11.9588966,33.8963264 C11.9588966,35.9742374 12.8149459,37.8338524 14.1637579,39.0852109 C13.238571,37.8968815 12.6796876,36.3611234 12.6796876,34.6829093" id="Fill-12" fill="#231815" opacity="0.124320652"></path>
                    <path d="M30.0031854,26.7049098 C27.1056908,26.7049098 23.6153726,22.0589469 22.5338089,16.762708 C21.0384252,9.43852026 24.8709117,6.87712991 26.5877872,6.11616868 L26.6458628,6.09029088 L26.6853341,6.03956013 C26.7074582,6.01086395 28.9098054,3.1886458 31.1305056,3.1886458 C32.590692,3.1886458 33.7607519,4.42719347 34.6082533,6.86995586 C36.1906248,11.4313675 35.2858019,20.5498352 32.8476325,24.6095762 C32.0951639,25.8624719 31.2632498,26.559123 30.3745172,26.6798006 C30.2525836,26.6964547 30.1278845,26.7049098 30.0031854,26.7049098" id="Fill-14" fill="#F4F0EB"></path>
                    <path d="M31.1306313,2.9324299 C28.7583312,2.9324299 26.4876006,5.88096249 26.4876006,5.88096249 C17.2294455,9.985285 24.1029814,26.9611257 30.0033111,26.9611257 C30.1385694,26.9611257 30.2735763,26.9521581 30.4075776,26.9339668 C34.8809069,26.3262227 36.9062619,12.7252578 34.8452068,6.78463597 C33.8325293,3.86608064 32.4656158,2.9324299 31.1306313,2.9324299 M31.1308827,3.4448617 L31.1306313,3.4448617 C32.4726553,3.4448617 33.5630183,4.62601701 34.3710485,6.95553197 C35.9343128,11.4605762 35.0410548,20.4663088 32.6333059,24.4758315 C31.9223199,25.6598051 31.1512469,26.3159741 30.3412055,26.4258907 C30.2305853,26.4410074 30.1169482,26.4486939 30.0033111,26.4486939 C27.2146768,26.4486939 23.8392528,21.8982995 22.7800646,16.7106962 C22.3129457,14.4226882 22.3639818,12.2943027 22.9281448,10.5553654 C23.5662221,8.58865212 24.8313147,7.17408414 26.6882253,6.35086245 L26.8046279,6.29910684 L26.8828163,6.19790156 C26.9041861,6.17023024 29.033876,3.4448617 31.1308827,3.4448617" id="Fill-16" fill="#72443B"></path>
                    <path d="M5.65010183,26.6153367 C5.52540272,26.6150805 5.40045219,26.6068816 5.2790214,26.5902276 C4.39028879,26.4695499 3.55812333,25.7728988 2.80565467,24.5194907 C0.367485276,20.4597497 -0.537086129,11.341282 1.04528531,6.78012657 C1.89278675,4.33736417 3.0628466,3.09881651 4.5227816,3.09881651 C6.74700151,3.09881651 8.94608046,5.92077844 8.96795309,5.94947462 L9.00742438,6.00046158 L9.06549998,6.02633939 C10.7828783,6.78755683 14.6156162,9.34894719 13.1192269,16.6746722 C12.0376632,21.9701424 8.5475964,26.6153367 5.65035324,26.6153367 L5.65010183,26.6153367 Z" id="Fill-18" fill="#F4F0EB"></path>
                    <path d="M4.52275646,2.8427031 C3.18777198,2.8427031 1.82085849,3.77635384 0.808181,6.69490916 C-1.25287414,12.635531 0.77248085,26.2364959 5.2458102,26.84424 C5.37981147,26.8624313 5.51481837,26.8713989 5.65007669,26.8713989 C11.5504064,26.8713989 18.4239423,9.89555819 9.16578723,5.79123568 C9.16578723,5.79123568 6.89505657,2.8427031 4.52275646,2.8427031 M4.52275646,3.3551349 C6.61951175,3.3551349 8.74920168,6.08050343 8.77032008,6.10766231 L8.84875984,6.20963624 L8.96516244,6.26113564 C10.8220731,7.08435733 12.0871657,8.49892531 12.725243,10.4656386 C13.289406,12.2045759 13.3404421,14.3329614 12.8733232,16.6209694 C11.814135,21.8085727 8.43871094,26.3589671 5.65007669,26.3589671 C5.53643959,26.3589671 5.4228025,26.3512806 5.31218231,26.3361639 C4.50214088,26.2262473 3.73106792,25.5700783 3.02008184,24.3861047 C0.612332994,20.376582 -0.280924983,11.3708493 1.28233933,6.86580516 C2.09036948,4.5362902 3.18073251,3.3551349 4.52275646,3.3551349" id="Fill-20" fill="#72443B"></path>
                    <path d="M0.360697219,13.1819114 L0.144736453,11.1998252 C0.223427629,10.9971585 2.10170805,6.23666702 4.42020652,6.21155786 C4.42649176,6.21155786 4.432777,6.21130165 4.43906224,6.21130165 C5.5143407,6.21130165 6.47296515,7.21105609 7.28803477,9.18314988 L6.57327754,10.6633091 C5.84418997,8.89926266 5.29284892,8.00481295 4.43881083,8.00481295 C4.43428546,8.00481295 4.43001149,8.00481295 4.42548612,8.00506917 C2.77875385,8.02274806 0.863013414,11.8905833 0.360697219,13.1819114" id="Fill-22" fill="#231815" opacity="0.124320652"></path>
                    <path d="M35.2817542,13.1435559 L35.497715,11.1614697 C35.4190238,10.9588029 33.5407434,6.1983115 31.2222449,6.17320234 C31.2159597,6.17320234 31.2096745,6.17294613 31.2033892,6.17294613 C30.1281108,6.17294613 29.1694863,7.17270057 28.3544167,9.14479436 L29.0691739,10.6249536 C29.7982615,8.86090714 30.3496025,7.96645743 31.2036406,7.96645743 C31.208166,7.96645743 31.21244,7.96645743 31.2169653,7.96671365 C32.8636976,7.98439254 34.7794381,11.8522278 35.2817542,13.1435559" id="Fill-24" fill="#231815" opacity="0.124320652"></path>
                    <path d="M17.7158977,28.8021907 C8.7926201,28.8021907 3.46525265,25.5774573 3.46525265,20.17617 C3.46525265,18.5507363 4.02413599,16.9668096 5.03882476,15.7162198 L5.0928778,15.6496036 L5.09639753,15.5637713 C5.40713968,8.14862694 10.9502165,2.34021247 17.7158977,2.34021247 C24.481579,2.34021247 30.0244043,8.14862694 30.3353979,15.5637713 L30.3389176,15.6496036 L30.3927193,15.7162198 C31.407408,16.9670658 31.9665428,18.5507363 31.9665428,20.17617 C31.9665428,21.459043 31.6004905,23.9033427 29.1482422,25.8598073 C26.7007707,27.8121724 22.8542052,28.8021907 17.7158977,28.8021907" id="Fill-26" fill="#F4F0EB"></path>
                    <path d="M17.7158726,2.08397095 C10.8008541,2.08397095 5.15947618,8.05636359 4.84521429,15.5527284 C3.82625156,16.8084425 3.21381801,18.4195281 3.21381801,20.1761443 C3.21381801,24.0273255 6.18723824,29.058381 17.7158726,29.058381 C29.27895,29.058381 32.2179272,24.0273255 32.2179272,20.1761443 C32.2179272,18.4195281 31.6054936,16.8084425 30.5865309,15.5527284 C30.272269,8.05636359 24.6308911,2.08397095 17.7158726,2.08397095 M17.7158726,2.59640275 C24.3462955,2.59640275 29.7792549,8.29720654 30.0842147,15.5745068 L30.0915055,15.7464276 L30.1991088,15.8791475 C31.176589,17.0841308 31.7151081,18.6101527 31.7151081,20.1761443 C31.7151081,21.6862808 31.2429611,23.8633474 28.9930974,25.6578835 C26.5908796,27.5743785 22.7966073,28.5459492 17.7158726,28.5459492 C12.6484626,28.5459492 8.85846425,27.5741222 6.45121822,25.6576273 C4.07187865,23.7634232 3.71663702,21.4103363 3.71663702,20.1761443 C3.71663702,18.6101527 4.25515618,17.0841308 5.23263634,15.8791475 L5.34023961,15.7464276 L5.34753049,15.5745068 C5.65249022,8.29720654 11.0854497,2.59640275 17.7158726,2.59640275" id="Fill-28" fill="#72443B"></path>
                    <path d="M5.20244206,15.6223679 L5.19515119,15.7942888 L5.08754792,15.9270086 C4.11006776,17.131992 3.57154859,18.6580139 3.57154859,20.2240055 C3.57154859,21.4581975 3.92679023,23.8112843 6.3061298,25.7054884 C7.01736729,26.2717256 8.60451551,27.0275625 9.55434062,27.4282841 C6.41448729,25.6114572 5.14713197,22.6870089 5.14713197,20.438202 C5.14713197,18.6813295 6.00896376,17.3449074 7.02792649,16.0891933 C7.29467198,9.72222813 10.6530002,4.18258415 16.1219112,2.73983241 C10.1657685,3.49976877 5.48477494,8.88312106 5.20244206,15.6223679" id="Fill-30" fill="#231815" opacity="0.124320652"></path>
                    <path d="M30.091405,15.7479393 L30.1990083,15.8806591 C31.1767398,17.0853863 31.7150076,18.6116644 31.7150076,20.177656 C31.7150076,21.4115918 31.3597659,23.7646786 28.9804264,25.659139 C28.2694403,26.2251199 27.4345093,26.7068058 26.4846842,27.1072712 C29.6242861,25.2904443 30.9627903,22.3129593 30.9627903,20.0638961 C30.9627903,18.3072799 30.091405,15.7479393 30.091405,15.7479393" id="Fill-32" fill="#FFFFFF"></path>
                    <g id="Group-38" transform="translate(10.964489, 0.761438)" fill="#231815" opacity="0.25">
                        <path d="M3.5647354,5.40718036 L3.27234614,6.29291873 L1.41669257,5.01235166 L0.44851456,5.75332805 L8.8817842e-16,4.13096896 C0.519160631,3.49785947 3.60294964,0 8.3198948,0 C8.94590448,0 9.58322758,0.0620042479 10.219545,0.184219232 L9.13622147,1.52832785 L9.70139004,1.50168139 C9.70440696,1.50142518 9.72879368,1.50040031 9.77203612,1.50040031 C10.1340658,1.50040031 11.94346,1.57316563 14.0605795,2.91522452 L10.8699414,3.70436949 L11.3654696,4.02771396 C11.3772858,4.03540043 12.4591009,4.74921793 13.5057187,6.01441205 C13.3925844,6.01979258 13.2593374,6.0233796 13.1077375,6.0233796 C12.6011473,6.0233796 11.7775298,5.98084777 10.7291521,5.77818099 L10.3862295,5.71182107 L10.5426063,6.89143908 L6.82325401,5.73411185 L6.53765281,7.12100852 L3.5647354,5.40718036 Z" id="Fill-34"></path>
                    </g>
                    <polygon id="Fill-39" fill="#72443B" points="9.04566377 24.4898465 8.78746621 24.3174132 10.3198071 21.9358864 10.5780047 22.1085759"></polygon>
                    <path d="M8.96164271,24.2805437 L9.00941052,24.3125707 L10.4037276,22.1452404 L10.3559598,22.1134696 L8.96164271,24.2805437 Z M9.08181646,24.6674297 L8.61344054,24.3540777 L10.2838053,21.7586106 L10.7519298,22.0717064 L9.08181646,24.6674297 Z" id="Fill-41" fill="#72443B"></path>
                    <polygon id="Fill-43" fill="#72443B" points="27.7794432 23.7090541 27.5348217 23.9009598 25.8305167 21.6442102 26.0751381 21.4523045"></polygon>
                    <path d="M26.0066542,21.6678333 L27.5578508,23.7214037 L27.6033559,23.6855335 L26.0521593,21.6319631 L26.0066542,21.6678333 Z M27.5115915,24.0806184 L25.654178,21.6206896 L26.0981672,21.2727484 L27.9558321,23.7326772 L27.5115915,24.0806184 Z" id="Fill-45" fill="#72443B"></path>
                    <path d="M10.1718527,19.5070109 C10.1718527,20.0422459 9.21725076,20.4762756 8.03964863,20.4762756 C6.8620465,20.4762756 5.9074446,20.0422459 5.9074446,19.5070109 C5.9074446,18.9717759 6.8620465,18.5377461 8.03964863,18.5377461 C9.21725076,18.5377461 10.1718527,18.9717759 10.1718527,19.5070109" id="Fill-47" fill="#FF9F9F"></path>
                    <path d="M30.0948242,19.5070109 C30.0948242,20.0422459 29.1402223,20.4762756 27.9626201,20.4762756 C26.785018,20.4762756 25.8304161,20.0422459 25.8304161,19.5070109 C25.8304161,18.9717759 26.785018,18.5377461 27.9626201,18.5377461 C29.1402223,18.5377461 30.0948242,18.9717759 30.0948242,19.5070109" id="Fill-49" fill="#FF9F9F"></path>
                    <path d="M21.4915406,41.2725516 C21.4915406,41.4370422 19.9136945,42.1237009 17.9672821,42.1237009 C16.0208697,42.1237009 14.4430236,41.4370422 14.4430236,41.2725516 C14.4430236,41.108061 16.0208697,41.5277427 17.9672821,41.5277427 C19.9136945,41.5277427 21.4915406,41.108061 21.4915406,41.2725516" id="Fill-51" fill="#72443B"></path>
                    <path d="M12.7812571,11.5431802 C12.7812571,11.7701874 11.8223812,11.9541505 10.6394995,11.9541505 C9.45661775,11.9541505 8.49774189,11.7701874 8.49774189,11.5431802 C8.49774189,11.3161729 9.45661775,11.1322099 10.6394995,11.1322099 C11.8223812,11.1322099 12.7812571,11.3161729 12.7812571,11.5431802" id="Fill-53" fill="#72443B"></path>
                    <path d="M27.4187711,11.5431802 C27.4187711,11.7701874 26.4598952,11.9541505 25.2770135,11.9541505 C24.0941318,11.9541505 23.1352559,11.7701874 23.1352559,11.5431802 C23.1352559,11.3161729 24.0941318,11.1322099 25.2770135,11.1322099 C26.4598952,11.1322099 27.4187711,11.3161729 27.4187711,11.5431802" id="Fill-55" fill="#72443B"></path>
                    <path d="M12.5298476,15.0626899 C12.5298476,16.2556311 11.5810281,17.2225899 10.4104654,17.2225899 C9.23990275,17.2225899 8.29108328,16.2556311 8.29108328,15.0626899 C8.29108328,13.8697486 9.23990275,12.9027898 10.4104654,12.9027898 C11.5810281,12.9027898 12.5298476,13.8697486 12.5298476,15.0626899" id="Fill-57" fill="#231815"></path>
                    <path d="M10.4104403,13.1589289 C9.38041553,13.1589289 8.54246764,14.0128965 8.54246764,15.0628692 C8.54246764,16.1123296 9.38041553,16.9662972 10.4104403,16.9662972 C11.440465,16.9662972 12.2784129,16.1123296 12.2784129,15.0628692 C12.2784129,14.0128965 11.440465,13.1589289 10.4104403,13.1589289 M10.4104403,17.478729 C9.10336225,17.478729 8.03964863,16.3949357 8.03964863,15.0628692 C8.03964863,13.7302903 9.10336225,12.6464971 10.4104403,12.6464971 C11.7175183,12.6464971 12.7812319,13.7302903 12.7812319,15.0628692 C12.7812319,16.3949357 11.7175183,17.478729 10.4104403,17.478729" id="Fill-59" fill="#FFFFFF"></path>
                    <path d="M27.3634358,15.0626899 C27.3634358,16.2556311 26.4146164,17.2225899 25.2440537,17.2225899 C24.073491,17.2225899 23.1246716,16.2556311 23.1246716,15.0626899 C23.1246716,13.8697486 24.073491,12.9027898 25.2440537,12.9027898 C26.4146164,12.9027898 27.3634358,13.8697486 27.3634358,15.0626899" id="Fill-61" fill="#231815"></path>
                    <path d="M25.2440788,13.1589289 C24.2140541,13.1589289 23.3761062,14.0128965 23.3761062,15.0628692 C23.3761062,16.1123296 24.2140541,16.9662972 25.2440788,16.9662972 C26.2741036,16.9662972 27.1120515,16.1123296 27.1120515,15.0628692 C27.1120515,14.0128965 26.2741036,13.1589289 25.2440788,13.1589289 M25.2440788,17.478729 C23.9370008,17.478729 22.8732872,16.3949357 22.8732872,15.0628692 C22.8732872,13.7302903 23.9370008,12.6464971 25.2440788,12.6464971 C26.5511569,12.6464971 27.6148705,13.7302903 27.6148705,15.0628692 C27.6148705,16.3949357 26.5511569,17.478729 25.2440788,17.478729" id="Fill-63" fill="#FFFFFF"></path>
                    <path d="M10.7519549,14.5194865 C10.7519549,14.9358374 10.4208486,15.2732737 10.0123082,15.2732737 C9.60351632,15.2732737 9.27241,14.9358374 9.27241,14.5194865 C9.27241,14.1031357 9.60351632,13.7656994 10.0123082,13.7656994 C10.4208486,13.7656994 10.7519549,14.1031357 10.7519549,14.5194865" id="Fill-65" fill="#FFFFFF"></path>
                    <path d="M11.6819941,15.7479137 C11.6819941,15.987988 11.4911743,16.1824558 11.2556036,16.1824558 C11.0200329,16.1824558 10.8289617,15.987988 10.8289617,15.7479137 C10.8289617,15.5078394 11.0200329,15.3133715 11.2556036,15.3133715 C11.4911743,15.3133715 11.6819941,15.5078394 11.6819941,15.7479137" id="Fill-67" fill="#FFFFFF"></path>
                    <path d="M26.2569323,15.893803 C26.2569323,16.1338773 26.0661125,16.3283452 25.8305418,16.3283452 C25.5949711,16.3283452 25.4038999,16.1338773 25.4038999,15.893803 C25.4038999,15.6537287 25.5949711,15.4592608 25.8305418,15.4592608 C26.0661125,15.4592608 26.2569323,15.6537287 26.2569323,15.893803" id="Fill-69" fill="#FFFFFF"></path>
                    <path d="M25.4040004,14.5194865 C25.4040004,14.9194396 25.085716,15.2438089 24.6932658,15.2438089 C24.3008155,15.2438089 23.9825311,14.9194396 23.9825311,14.5194865 C23.9825311,14.1195335 24.3008155,13.7951642 24.6932658,13.7951642 C25.085716,13.7951642 25.4040004,14.1195335 25.4040004,14.5194865" id="Fill-71" fill="#FFFFFF"></path>
                    <path d="M0.611101088,10.8374591 L0.143730815,10.6488842 C0.222421991,10.4462174 2.10070242,5.68572597 4.41894948,5.66061681 C4.42548612,5.66061681 4.43177136,5.6603606 4.4380566,5.6603606 C5.51333506,5.6603606 6.4717081,6.66011504 7.28702913,8.63220883 L6.82343,8.83128858 C6.09434243,7.06724211 5.29159187,6.1727924 4.43780519,6.1727924 C4.43327982,6.1727924 4.42900586,6.1727924 4.42448049,6.17304861 C2.77749681,6.19072751 1.11341728,9.54613094 0.611101088,10.8374591" id="Fill-73" fill="#72443B"></path>
                    <path d="M35.1543902,10.8404568 C35.1357859,10.7940817 33.255997,6.19551875 31.1929306,6.17297175 C31.1881538,6.17271553 31.1831256,6.17271553 31.1786003,6.17271553 C30.2878564,6.17271553 29.4524226,7.06793389 28.6959314,8.83428631 L28.2353492,8.62905737 C29.0790795,6.65926953 30.0691301,5.66028373 31.1783488,5.66028373 C31.1851369,5.66028373 31.1916735,5.66053995 31.198713,5.66053995 C33.5928857,5.6871864 35.5377897,10.4433222 35.6194978,10.6457327 L35.1543902,10.8404568 Z" id="Fill-75" fill="#72443B"></path>
                    <polygon id="Fill-77" fill="#72443B" points="9.92904135 38.0004952 9.47248169 37.9049267 10.3750418 33.4278101 10.8318529 33.5233786"></polygon>
                    <polygon id="Fill-79" fill="#72443B" points="25.9782952 38.0004952 26.4348548 37.9049267 25.5322947 33.4278101 25.0754836 33.5233786"></polygon>
                    <path d="M15.0800702,5.45756571 L14.7316166,6.32178194 L12.9619451,4.9207934 L11.9485134,5.59566608 L11.6048366,3.94691676 C12.1632171,3.3496775 15.4644753,0.0644772214 20.1711127,0.378341699 C20.7958653,0.419848675 21.4279088,0.523872331 22.0551755,0.688106723 L20.8878812,1.95765651 L21.4535526,1.96867379 C21.4568209,1.96841758 21.4812076,1.96918623 21.5241986,1.9720046 C21.8857255,1.9960889 23.6863204,2.18876325 25.7129324,3.66892251 L22.4788005,4.24412721 L22.9524561,4.59975488 C22.9637695,4.60821 23.9978168,5.39248687 24.9609666,6.72455334 C24.8478323,6.7222474 24.7145853,6.71712308 24.5632368,6.70713066 C24.0576522,6.67356637 23.2385601,6.57620433 22.205267,6.30435926 L21.867624,6.21519613 L21.9480751,7.40275683 L18.3106823,6.0004872 L17.9368364,7.36560552 L15.0800702,5.45756571 Z" id="Fill-81" fill="#FF8855"></path>
                    <g id="Group-85" transform="translate(11.313428, 0.062914)">
                        <mask id="mask-10" fill="white">
                            <use xlink:href="#path-9"></use>
                        </mask>
                        <g id="Clip-84"></g>
                        <path d="M8.8741522,0.0596983048 C3.53346005,-0.295673149 0.0182523302,3.80736828 0.0182523302,3.80736828 L0.465258433,5.95189537 L1.6358211,5.17223038 L3.52516354,6.66801881 L3.88342209,5.77920585 L6.77312296,7.70902401 L7.1655732,6.27652091 L10.9128319,7.72080995 L10.8291125,6.48943633 C11.846064,6.75718194 12.6659104,6.86197425 13.2333416,6.8998942 C13.8083152,6.93807037 14.1243369,6.90758068 14.1243369,6.90758068 C13.0563493,5.28086592 11.7879884,4.33056115 11.7879884,4.33056115 L15.0113097,3.75740618 C12.7561664,1.91547007 10.6626794,1.68256982 10.2272382,1.65336121 C10.1731851,1.64977418 10.1445244,1.64926175 10.1445244,1.64926175 L11.2092437,0.491678313 C10.3981966,0.245454833 9.61882716,0.109147974 8.8741522,0.0596983048 M8.87515784,0.0596983048 L8.8422232,0.571105242 C9.31261038,0.602363582 9.78727153,0.670260796 10.2611785,0.773259588 L9.77771797,1.29901462 L9.00966193,2.13607196 L10.1349709,2.16169355 C10.1399991,2.16194977 10.1603632,2.1624622 10.1945549,2.16476814 C10.5128394,2.18603406 11.9878589,2.34309441 13.7401832,3.46327033 L11.7015035,3.82555961 L10.5450198,4.03181341 L11.4895653,4.74306875 C11.4993703,4.75024279 12.2835165,5.3464572 13.1119108,6.37695755 C12.6121087,6.33519436 11.8694451,6.23398907 10.9548173,5.99340234 L10.2792799,5.81558851 L10.3275506,6.52479412 L10.3569655,6.95882386 L7.34331972,5.79714096 L6.82918728,5.59882986 L6.68110708,6.13867676 L6.47369423,6.89630718 L4.15896691,5.35055665 L3.64986265,5.01030193 L3.4183145,5.58422555 L3.31121405,5.84992144 L1.94430056,4.76766548 L1.66096205,4.54322035 L1.3607791,4.74332497 L0.804661267,5.11381316 L0.565068007,3.9639162 C1.30597182,3.1985993 4.44004273,0.277994252 8.84146897,0.571105242 L8.87515784,0.0596983048" id="Fill-83" fill="#72443B" mask="url(#mask-10)"></path>
                    </g>
                    <polygon id="Fill-86" fill="#72443B" points="17.8272721 2.15335421 20.8834061 2.20972171 20.8922054 1.70728233 18.5754668 2.04138787"></polygon>
                    <polygon id="Fill-88" fill="#72443B" points="20.7186574 4.2945505 22.3970673 4.00092707 22.4805353 4.49567998 21.1493219 4.34656232"></polygon>
                    <polygon id="Fill-90" fill="#72443B" points="18.3928932 4.71484706 18.1155886 5.76020793 18.6211731 5.89958938 18.4517231 5.00488346"></polygon>
                    <polygon id="Fill-92" fill="#72443B" points="15.3518187 4.21537978 14.9078295 5.19924884 15.3839991 5.42241289 15.3626293 4.51130915"></polygon>
                    <polygon id="Fill-94" fill="#72443B" points="13.729096 4.10723105 12.8358381 4.69370925 13.119428 5.1425995 13.5820215 4.3626783"></polygon>
                    <path d="M5.7481264,34.8936212 L7.85644652,30.9914531 L9.72617902,27.9555509 L9.1833859,27.7387922 C9.1833859,27.7387922 8.72582059,28.0503507 7.1683387,31.0967578 C5.82204079,33.730401 5.7481264,34.8936212 5.7481264,34.8936212" id="Fill-96" fill="#000000" opacity="0.124320652"></path>
                    <path d="M30.2423764,35.0732029 L28.1926347,31.1551494 L26.3792179,28.0984937 L26.8946074,27.9045383 C26.8946074,27.9045383 27.3340712,28.2278827 28.8500705,31.2835136 C30.1604169,33.9250995 30.2423764,35.0732029 30.2423764,35.0732029" id="Fill-98" fill="#FFFFFF"></path>
                    <polygon id="Fill-100" fill="#000000" opacity="0.124320652" points="12.4738587 30.2484782 9.43859169 28.4413874 10.1133748 27.2645878 13.1483904 29.0716786"></polygon>
                    <polygon id="Fill-102" fill="#000000" opacity="0.124320652" points="27.1643447 28.9354998 23.7788642 29.899384 23.4190972 28.5865337 26.8045777 27.6226495"></polygon>
                    <path d="M21.5961772,20.4780948 C21.5961772,20.7068956 20.0183311,20.8921397 18.0719187,20.8921397 C16.1255063,20.8921397 14.5476603,20.7068956 14.5476603,20.4780948 C14.5476603,20.249294 16.1255063,20.0640499 18.0719187,20.0640499 C20.0183311,20.0640499 21.5961772,20.249294 21.5961772,20.4780948" id="Fill-104" fill="#72443B"></path>
                    <path d="M26.9389812,22.9074315 C26.9389812,22.9074315 24.4299143,24.1708321 23.7526171,27.7517055 C23.4738039,29.226228 24.368319,29.8893147 25.4933765,28.6571725 C26.2807911,27.795006 26.3542027,26.4990659 26.3542027,26.4990659 C26.3542027,26.4990659 26.2619354,25.2717918 27.2434381,25.7578333 C27.2434381,25.7578333 28.3174595,25.0868039 27.8405357,26.9077303 C27.3638632,28.7284005 26.5228984,34.6126549 19.7350932,34.5880581 C13.9338188,34.5667922 11.8893567,27.2582337 11.8893567,27.2582337 C11.8893567,27.2582337 10.8887469,24.0101847 9.68273546,23.1241901" id="Fill-106" fill="#F4F0EB"></path>
                    <path d="M19.7778831,34.8442484 L19.7338864,34.8442484 C13.8121869,34.8224701 11.6686694,27.4032262 11.647551,27.3284112 C11.6397573,27.3030458 10.6597631,24.1579956 9.53571118,23.3319556 L9.8298603,22.9161172 C11.0889191,23.8418252 12.0872663,27.0455488 12.1292517,27.1813433 C12.1511243,27.2592329 14.1938265,34.3115756 19.7358977,34.3318166 L19.7781345,34.3318166 C25.8187507,34.3318166 26.9400371,29.60079 27.4798133,27.324568 C27.5228043,27.1429109 27.56127,26.9807262 27.5977244,26.8418572 C27.8079027,26.0388766 27.6628394,25.9018011 27.661331,25.90052 C27.6271393,25.8733611 27.4717682,25.9153805 27.3749755,25.9763599 L27.2575673,26.0496376 L27.1338738,25.988402 C26.9556245,25.90052 26.8145838,25.8766919 26.7451947,25.9251167 C26.6230097,26.0101804 26.5933434,26.3281443 26.6046568,26.4795679 L26.6059139,26.4964782 L26.6049082,26.5136446 C26.6018913,26.5702683 26.5171663,27.9123272 25.6774586,28.8318861 C25.0886575,29.4765253 24.4817549,29.7073758 24.0126248,29.4644832 C23.5407292,29.2203094 23.3463896,28.5454367 23.5057832,27.7032551 C24.1986678,24.0393677 26.7205566,22.7316417 26.8274056,22.6778364 L27.0506573,23.1369753 C27.0267734,23.1490174 24.6434113,24.3970451 23.9993001,27.8003609 C23.8705784,28.481639 24.027458,28.8974774 24.2401504,29.0076502 C24.487286,29.1362706 24.8970834,28.9341162 25.3091436,28.4826638 C25.9851838,27.7424561 26.0912786,26.6340661 26.1020892,26.4980155 C26.0947983,26.3627335 26.0852448,25.7631883 26.462359,25.5015918 C26.6685148,25.3586233 26.9282209,25.349912 27.2356947,25.4744329 C27.4074074,25.3967995 27.7168925,25.3037931 27.9620167,25.4895497 C28.2523947,25.7104078 28.2908604,26.181845 28.0834475,26.9738084 C28.0482502,27.1096028 28.0105388,27.2679442 27.9685534,27.4449894 C27.4431075,29.6610008 26.2134636,34.843736 19.7778831,34.8442484" id="Fill-108" fill="#72443B"></path>
                    <path d="M20.2426387,22.8671031 C20.2426387,23.0077656 19.2706895,23.1220379 18.071969,23.1220379 C16.8729971,23.1220379 15.9012993,23.0077656 15.9012993,22.8671031 C15.9012993,22.7264405 16.8729971,22.6121682 18.071969,22.6121682 C19.2706895,22.6121682 20.2426387,22.7264405 20.2426387,22.8671031" id="Fill-110" fill="#72443B"></path>
                    <path d="M19.4163311,24.6818563 C19.4163311,24.785618 18.8144567,24.869818 18.0720444,24.869818 C17.3293807,24.869818 16.7275064,24.785618 16.7275064,24.6818563 C16.7275064,24.5780947 17.3293807,24.4938947 18.0720444,24.4938947 C18.8144567,24.4938947 19.4163311,24.5780947 19.4163311,24.6818563" id="Fill-112" fill="#72443B"></path>
                    <polygon id="Fill-114" fill="#EFDDD5" points="6.71781286 37.5630578 6.43271448 37.4195769 6.90410731 36.4469814 7.18920569 36.5907185"></polygon>
                    <polygon id="Fill-116" fill="#72443B" points="6.90418273 36.4470582 6.43278991 37.4193976 6.71788829 37.5631347 7.18928111 36.5905391"></polygon>
                    <polygon id="Fill-118" fill="#EFDDD5" points="7.71648685 38.1210704 7.43138847 37.9775895 7.90278129 37.004994 8.18787967 37.1487311"></polygon>
                    <polygon id="Fill-120" fill="#72443B" points="7.90285672 37.0050708 7.43146389 37.9774102 7.71656227 38.1211473 8.1879551 37.1485517"></polygon>
                    <polygon id="Fill-122" fill="#EFDDD5" points="28.6237768 37.8525049 28.3323932 37.9824064 27.9060027 36.9885449 28.1973863 36.8586434"></polygon>
                    <polygon id="Fill-124" fill="#72443B" points="28.1974366 36.8586434 27.906053 36.9885449 28.3324435 37.9824064 28.6238271 37.8525049"></polygon>
                    <polygon id="Fill-126" fill="#EFDDD5" points="29.6676291 37.4120442 29.3762455 37.5419456 28.949855 36.5480842 29.2412386 36.4181827"></polygon>
                    <polygon id="Fill-128" fill="#72443B" points="29.2412637 36.4182083 28.9498801 36.5481098 29.3762706 37.5419713 29.6676543 37.4120698"></polygon>
                </g>
            </g>
        </g>
    </g>
</svg>